<?xml version="1.0" encoding="UTF-8"?>
<svg version="1.1" xmlns="http://www.w3.org/2000/svg" width="512" height="512">
<path d="M0 0 C1.01790619 0.00215515 2.03581238 0.0043103 3.08456421 0.00653076 C17.69363523 0.05620146 32.02575853 0.30709809 46.375 3.3125 C47.34985352 3.51117676 48.32470703 3.70985352 49.32910156 3.91455078 C97.7109774 14.03517194 141.69928269 35.9516877 177.375 70.3125 C178.3640332 71.26068604 178.3640332 71.26068604 179.37304688 72.22802734 C188.86130305 81.37247479 197.6012044 90.66984009 205.375 101.3125 C206.23306152 102.46355017 207.09113451 103.61459177 207.94921875 104.765625 C213.98736829 112.95680614 219.34595521 121.47054105 224.375 130.3125 C224.73948242 130.94430176 225.10396484 131.57610352 225.47949219 132.22705078 C247.08534998 169.97532572 256.85198095 212.74189997 256.6875 255.9375 C256.68534485 256.95540619 256.6831897 257.97331238 256.68096924 259.02206421 C256.63129854 273.63113523 256.38040191 287.96325853 253.375 302.3125 C253.07698486 303.77478027 253.07698486 303.77478027 252.77294922 305.26660156 C242.65232806 353.6484774 220.7358123 397.63678269 186.375 433.3125 C185.74287598 433.97185547 185.11075195 434.63121094 184.45947266 435.31054688 C175.31502521 444.79880305 166.01765991 453.5387044 155.375 461.3125 C154.22394983 462.17056152 153.07290823 463.02863451 151.921875 463.88671875 C143.73224019 469.92427396 135.22961724 475.30707302 126.375 480.3125 C125.66778809 480.7146875 124.96057617 481.116875 124.23193359 481.53125 C101.09654164 494.5566741 75.92537591 503.30551461 49.9375 508.625 C49.21860596 508.77235596 48.49971191 508.91971191 47.7590332 509.0715332 C33.08339502 511.86090125 18.55831162 512.66142619 3.64770508 512.62817383 C0.70811513 512.6250221 -2.2304558 512.64854926 -5.16992188 512.67382812 C-18.54306192 512.71848737 -31.43916711 511.51301542 -44.625 509.3125 C-46.33055054 509.03031616 -46.33055054 509.03031616 -48.07055664 508.74243164 C-91.33802759 500.97044532 -132.38793216 480.98345309 -165.625 452.3125 C-166.37007813 451.67828125 -167.11515625 451.0440625 -167.8828125 450.390625 C-181.38779833 438.57948485 -194.05918743 425.82889772 -204.625 411.3125 C-205.48149066 410.16255169 -206.33826433 409.01281411 -207.1953125 407.86328125 C-213.23534209 399.67315742 -218.61867614 391.16870382 -223.625 382.3125 C-224.0271875 381.60528809 -224.429375 380.89807617 -224.84375 380.16943359 C-237.8691741 357.03404164 -246.61801461 331.86287591 -251.9375 305.875 C-252.08485596 305.15610596 -252.23221191 304.43721191 -252.3840332 303.6965332 C-255.35789088 288.05024391 -255.99800362 272.57681954 -255.9375 256.6875 C-255.93534485 255.66959381 -255.9331897 254.65168762 -255.93096924 253.60293579 C-255.88129854 238.99386477 -255.63040191 224.66174147 -252.625 210.3125 C-252.42632324 209.33764648 -252.22764648 208.36279297 -252.02294922 207.35839844 C-241.90232806 158.9765226 -219.9858123 114.98821731 -185.625 79.3125 C-184.99287598 78.65314453 -184.36075195 77.99378906 -183.70947266 77.31445312 C-174.56502521 67.82619695 -165.26765991 59.0862956 -154.625 51.3125 C-153.47394983 50.45443848 -152.32290823 49.59636549 -151.171875 48.73828125 C-142.98224019 42.70072604 -134.47961724 37.31792698 -125.625 32.3125 C-124.91778809 31.9103125 -124.21057617 31.508125 -123.48193359 31.09375 C-100.34654164 18.0683259 -75.17537591 9.31948539 -49.1875 4 C-48.46860596 3.85264404 -47.74971191 3.70528809 -47.0090332 3.5534668 C-31.36274391 0.57960912 -15.88931954 -0.06050362 0 0 Z " fill="#00BA00" transform="translate(255.625,-0.3125)"/>
<path d="M0 0 C8.07308233 4.77248514 13.60762895 10.77238837 17.3125 19.4375 C19.54154148 28.17026377 19.30049105 38.26086427 15.3125 46.4375 C11.36463457 52.43939977 6.54603575 57.48390442 1.4375 62.5 C0.76847656 63.16837891 0.09945313 63.83675781 -0.58984375 64.52539062 C-4.50178007 68.40340842 -8.528229 72.09264652 -12.69580078 75.69311523 C-16.1109619 78.68420695 -19.3932749 81.81456527 -22.6875 84.9375 C-24.18475963 86.35170671 -25.68215879 87.76576572 -27.1796875 89.1796875 C-27.93088867 89.88963867 -28.68208984 90.59958984 -29.45605469 91.33105469 C-32.90076955 94.58280522 -36.35587069 97.82342376 -39.8125 101.0625 C-40.46984131 101.67859131 -41.12718262 102.29468262 -41.80444336 102.92944336 C-49.37282656 110.02019656 -56.95737839 117.09361091 -64.54199219 124.16699219 C-71.59864581 130.74850028 -78.64969692 137.33583287 -85.6875 143.9375 C-92.72379392 150.5377515 -99.77341067 157.12358349 -106.82861328 163.70361328 C-109.94896302 166.61413651 -113.06818449 169.52586844 -116.1875 172.4375 C-119.92523032 175.92637233 -123.66317619 179.41501173 -127.40234375 182.90234375 C-128.64324553 184.05987829 -129.88413093 185.21743039 -131.125 186.375 C-131.73754639 186.94629639 -132.35009277 187.51759277 -132.98120117 188.10620117 C-136.27174161 191.17682819 -139.55712703 194.25278565 -142.8359375 197.3359375 C-149.1950609 203.31443532 -155.56627742 209.26553622 -162.078125 215.078125 C-166.08105089 218.69753703 -170.01400688 222.3910628 -173.95385742 226.07885742 C-178.48644195 230.32066594 -183.0422958 234.53589135 -187.61230469 238.73730469 C-190.80774452 241.68227526 -193.97917502 244.65112379 -197.13671875 247.63671875 C-197.90129395 248.35939941 -198.66586914 249.08208008 -199.45361328 249.82666016 C-200.95505318 251.24764867 -202.45480083 252.67042792 -203.95263672 254.09521484 C-204.63986816 254.74570801 -205.32709961 255.39620117 -206.03515625 256.06640625 C-206.64367432 256.64463135 -207.25219238 257.22285645 -207.87915039 257.81860352 C-209.73771403 259.48245332 -211.6713534 260.97032759 -213.6875 262.4375 C-218.32476195 257.90864157 -222.74752361 253.28604397 -226.97265625 248.37109375 C-229.1879738 245.87318444 -231.5564817 243.55725011 -233.9375 241.21875 C-236.39384849 238.71853815 -238.65059368 236.06069484 -240.9375 233.40625 C-242.62548286 231.50726929 -244.37519734 229.71744012 -246.1875 227.9375 C-249.28106643 224.89917583 -252.10855507 221.6898468 -254.9375 218.40625 C-256.62548286 216.50726929 -258.37519734 214.71744012 -260.1875 212.9375 C-262.62139732 210.54696833 -264.90105559 208.08703738 -267.125 205.5 C-269.54367779 202.69173653 -272.04649683 200.03779407 -274.6875 197.4375 C-277.95952128 194.2159145 -280.98066055 190.85157855 -283.97265625 187.37109375 C-286.1879738 184.87318444 -288.5564817 182.55725011 -290.9375 180.21875 C-293.39384849 177.71853815 -295.65059368 175.06069484 -297.9375 172.40625 C-299.62548286 170.50726929 -301.37519734 168.71744012 -303.1875 166.9375 C-306.28106643 163.89917583 -309.10855507 160.6898468 -311.9375 157.40625 C-313.62548286 155.50726929 -315.37519734 153.71744012 -317.1875 151.9375 C-320.22301261 148.94920647 -323.03750337 145.83006361 -325.796875 142.5859375 C-327.13322783 141.06735474 -328.52521626 139.59689506 -329.953125 138.1640625 C-337.43490127 130.50886758 -341.76013856 122.20978211 -342.3125 111.375 C-341.82876214 101.72570271 -337.6943468 93.35857012 -331.078125 86.4140625 C-322.71297442 79.49777787 -313.37251974 76.49668065 -302.6875 77.4375 C-288.61862983 80.40501264 -280.6501229 89.27251428 -271.41650391 99.53515625 C-268.26257163 103.00528337 -265.03334326 106.40460022 -261.8125 109.8125 C-254.98629665 117.05120929 -248.18872385 124.31596432 -241.40527344 131.59472656 C-239.66930415 133.45701994 -237.93247701 135.31850902 -236.1953125 137.1796875 C-235.61571777 137.80069336 -235.03612305 138.42169922 -234.43896484 139.06152344 C-233.28076245 140.30206249 -232.12223909 141.54230196 -230.96337891 142.78222656 C-227.88856968 146.07325366 -224.82192726 149.37145904 -221.765625 152.6796875 C-220.80462891 153.71706055 -220.80462891 153.71706055 -219.82421875 154.77539062 C-218.59011291 156.10786722 -217.35824662 157.44242241 -216.12890625 158.77929688 C-213.2440073 162.029217 -213.2440073 162.029217 -209.6875 164.4375 C-205.7297236 161.05540017 -201.83650542 157.65392354 -198.1875 153.9375 C-195.79696833 151.50360268 -193.33703738 149.22394441 -190.75 147 C-187.94173653 144.58132221 -185.28779407 142.07850317 -182.6875 139.4375 C-179.4659145 136.16547872 -176.10157855 133.14433945 -172.62109375 130.15234375 C-170.12318444 127.9370262 -167.80725011 125.5685183 -165.46875 123.1875 C-162.96853815 120.73115151 -160.31069484 118.47440632 -157.65625 116.1875 C-155.75726929 114.49951714 -153.96744012 112.74980266 -152.1875 110.9375 C-149.14917583 107.84393357 -145.9398468 105.01644493 -142.65625 102.1875 C-140.75726929 100.49951714 -138.96744012 98.74980266 -137.1875 96.9375 C-134.79696833 94.50360268 -132.33703738 92.22394441 -129.75 90 C-126.94173653 87.58132221 -124.28779407 85.07850317 -121.6875 82.4375 C-118.4659145 79.16547872 -115.10157855 76.14433945 -111.62109375 73.15234375 C-109.73255403 71.47745701 -107.95594352 69.73802413 -106.1875 67.9375 C-103.23460347 64.93815341 -100.14037178 62.17306031 -96.95703125 59.421875 C-88.01779906 51.60581656 -79.41944655 43.39403962 -70.765625 35.265625 C-68.13342807 32.79340965 -65.49850052 30.32419295 -62.859375 27.859375 C-61.9314917 26.99276245 -61.9314917 26.99276245 -60.98486328 26.10864258 C-59.74792288 24.95564786 -58.50932152 23.8044324 -57.26904297 22.6550293 C-54.08210738 19.69752958 -50.93417503 16.71064429 -47.8359375 13.66015625 C-34.32058926 0.44511095 -18.93453624 -8.81394347 0 0 Z " fill="#FDFEFD" transform="translate(414.6875,145.5625)"/>
</svg>
