<?xml version="1.0" encoding="UTF-8"?>
<svg version="1.1" xmlns="http://www.w3.org/2000/svg" width="512" height="512">
<path d="M0 0 C1.39887955 -0.01475876 1.39887955 -0.01475876 2.82601929 -0.02981567 C57.57088855 -0.4880434 109.12378205 11.10344388 155.04296875 42.23828125 C155.64254395 42.64256348 156.24211914 43.0468457 156.85986328 43.46337891 C165.73960159 49.50045241 173.97969134 56.15715546 182.04296875 63.23828125 C182.90535156 63.98851562 183.76773437 64.73875 184.65625 65.51171875 C195.02233699 74.67090885 204.52811934 84.32296898 213.04296875 95.23828125 C213.831875 96.22183594 214.62078125 97.20539063 215.43359375 98.21875 C240.24175316 129.39843075 256.71533404 166.38545995 265.04296875 205.23828125 C265.26742676 206.26356934 265.49188477 207.28885742 265.72314453 208.34521484 C276.88568467 262.05048281 268.49337457 320.08931597 245.04296875 369.23828125 C244.68122559 369.99898926 244.31948242 370.75969727 243.94677734 371.54345703 C232.93195378 394.31700235 217.52332434 415.03654735 200.04296875 433.23828125 C199.42679687 433.88700195 198.810625 434.53572266 198.17578125 435.20410156 C188.1999881 445.66024662 177.8463943 454.89708006 166.04296875 463.23828125 C165.41181152 463.68751953 164.7806543 464.13675781 164.13037109 464.59960938 C131.97743272 487.29182252 96.20201232 501.5707394 57.92578125 509.671875 C57.24946152 509.81626511 56.57314178 509.96065521 55.87632751 510.10942078 C47.47671737 511.84902813 39.46291947 512.40515152 30.9140625 512.44140625 C29.84793228 512.44710632 28.78180206 512.4528064 27.68336487 512.4586792 C25.42669657 512.46809633 23.17001472 512.47465006 20.91333008 512.47851562 C17.5428689 512.48810374 14.17304971 512.51910954 10.80273438 512.55078125 C-7.4775217 512.64059113 -25.52958091 511.23772198 -43.33203125 506.86328125 C-44.23373047 506.64833008 -45.13542969 506.43337891 -46.06445312 506.21191406 C-48.70051351 505.57295392 -51.32949602 504.91134952 -53.95703125 504.23828125 C-55.07319824 503.95645996 -55.07319824 503.95645996 -56.21191406 503.66894531 C-106.70601314 490.66885831 -154.89548543 458.19648638 -186.95703125 417.23828125 C-187.74722656 416.2534375 -188.53742188 415.26859375 -189.3515625 414.25390625 C-221.37096899 373.99948682 -242.74459174 321.11323792 -243.1953125 269.28125 C-243.20506104 268.34834641 -243.21480957 267.41544281 -243.22485352 266.45426941 C-243.39694656 245.70899062 -243.22121504 225.62358404 -238.95703125 205.23828125 C-238.76979492 204.33126465 -238.58255859 203.42424805 -238.38964844 202.48974609 C-234.23023654 183.02527884 -227.65539996 164.12663439 -218.95703125 146.23828125 C-218.30541016 144.89612549 -218.30541016 144.89612549 -217.640625 143.52685547 C-201.19518064 110.0461754 -177.43261113 79.31137861 -147.95703125 56.23828125 C-146.9721875 55.44808594 -145.98734375 54.65789063 -144.97265625 53.84375 C-104.71789546 21.82407197 -51.83223408 0.45134053 0 0 Z " fill="#EF4639" transform="translate(242.95703125,-0.23828125)"/>
<path d="M0 0 C7.03920056 5.80904707 13.51307721 12.19963446 20.05126953 18.55688477 C21.36748133 19.834042 22.68371002 21.11118183 23.99995422 22.38830566 C35.97059089 34.0142995 47.87226647 45.71059319 59.75349617 57.42787266 C67.73191428 65.29352365 75.73154119 73.13494312 83.78710938 80.92163086 C90.83194873 87.73138801 97.83317029 94.58263128 104.78557479 101.48678058 C108.46097675 105.13385524 112.15403937 108.75741219 115.90008926 112.33200264 C140.45787372 135.8095196 140.45787372 135.8095196 141.14178467 145.27755737 C140.82038212 149.7850177 139.67220032 153.68250931 137.87849808 157.81206989 C136.45196247 161.36490659 135.92921507 165.05110486 135.3125 168.8125 C131.23577829 187.29572337 124.28654283 205.03429455 116 222 C115.52941162 222.97791504 115.52941162 222.97791504 115.04931641 223.97558594 C104.27916253 246.12037076 89.00733375 266.29080858 72 284 C71.38382812 284.6487207 70.76765625 285.29744141 70.1328125 285.96582031 C60.15701935 296.42196537 49.80342555 305.65879881 38 314 C37.36884277 314.44923828 36.73768555 314.89847656 36.08740234 315.36132812 C7.77323907 335.34429269 -24.623143 350.29322206 -58.375 358 C-59.04557434 358.15433502 -59.71614868 358.30867004 -60.40704346 358.46768188 C-75.57151399 361.91521164 -75.57151399 361.91521164 -81 361 C-83.51884315 359.25550641 -85.27541319 357.77810093 -87.35290527 355.60913086 C-87.93960511 355.02926642 -88.52630494 354.44940199 -89.13078356 353.8519659 C-91.08781456 351.90809094 -93.0149148 349.93705057 -94.94335938 347.96484375 C-96.34181753 346.56412857 -97.74204053 345.16517351 -99.14389038 343.76785278 C-102.94240853 339.97163053 -106.7157518 336.15124362 -110.48508263 332.32606888 C-114.42922032 328.33193021 -118.39601592 324.36042643 -122.36047363 320.38647461 C-129.86328661 312.85879405 -137.34547375 305.31095301 -144.82048082 297.7556715 C-153.33189999 289.15484184 -161.86603915 280.57670998 -170.40217113 272.00041771 C-187.9601945 254.35876753 -205.4894649 236.68877749 -223 219 C-222.34 218.67 -221.68 218.34 -221 218 C-218.8984375 218.99609375 -218.8984375 218.99609375 -216.375 220.4375 C-210.58219062 223.40859707 -206.90192858 223.97870156 -200.6328125 222.40625 C-187.3346908 217.9321156 -177.03966898 204.17335655 -167.3671875 194.46484375 C-165.87954325 192.97533065 -164.39167527 191.48604097 -162.90359497 189.9969635 C-159.01840234 186.10798241 -155.1362242 182.216006 -151.25469971 178.32336426 C-147.28101691 174.33938774 -143.30444411 170.35829809 -139.328125 166.37695312 C-131.54927737 158.58743304 -123.77361629 150.79474051 -116 143 C-113.16633688 144.29800052 -111.02673094 145.69319405 -108.75976562 147.82617188 C-108.14629272 148.40089233 -107.53281982 148.97561279 -106.90075684 149.56774902 C-106.24256958 150.19507935 -105.58438232 150.82240967 -104.90625 151.46875 C-103.85854431 152.45953552 -103.85854431 152.45953552 -102.78967285 153.47033691 C-94.19443872 161.64638407 -85.85103505 170.07613616 -77.5 178.5 C-74.36758119 181.65924621 -71.23167695 184.81497578 -68.09375 187.96875 C-67.3977771 188.67302124 -66.7018042 189.37729248 -65.98474121 190.10290527 C-62.06885272 194.03814314 -58.05568397 197.78196657 -53.82785034 201.381073 C-51.22908866 203.68279616 -48.86428601 206.18541382 -46.47094727 208.69702148 C-36.50049565 219.24730901 -36.50049565 219.24730901 -23 223.5625 C-16.74605766 223.10582267 -10.96617025 220.58148477 -6.125 216.6875 C-1.24201769 210.51196355 1.205321 205.24908378 1.3125 197.375 C1.34150391 196.68792969 1.37050781 196.00085938 1.40039062 195.29296875 C1.49017968 187.93026583 -1.3461152 182.53134829 -6.32830811 177.19067383 C-7.6549405 175.85258188 -8.99247352 174.52523749 -10.33886719 173.20703125 C-11.07096909 172.47434525 -11.80307098 171.74165924 -12.55735779 170.98677063 C-14.96116435 168.58573377 -17.3787905 166.19914955 -19.796875 163.8125 C-21.47354953 162.14329175 -23.14933867 160.47319371 -24.82427979 158.80224609 C-29.22132842 154.42042298 -33.63025871 150.05074891 -38.04180908 145.68353271 C-42.54685813 141.21950234 -47.04051486 136.74403617 -51.53515625 132.26953125 C-60.34568557 123.5018185 -69.16881499 114.74690375 -78 106 C-73.96857241 101.15491166 -69.74032237 96.61593812 -65.24780273 92.19775391 C-64.60146881 91.55769913 -63.95513489 90.91764435 -63.28921509 90.25819397 C-61.8972894 88.88002855 -60.504292 87.50294485 -59.11031914 86.12685013 C-56.89962874 83.94301001 -54.69352107 81.75463905 -52.48878479 79.56478882 C-46.22404034 73.34258717 -39.95669861 67.12308563 -33.6730957 60.91992188 C-29.81899616 57.11450372 -25.97486754 53.29925437 -22.13694954 49.47751999 C-20.67944746 48.02987301 -19.21830783 46.58587827 -17.75338554 45.14574051 C-15.70042917 43.12676295 -13.66044783 41.09544893 -11.62280273 39.06103516 C-11.0237059 38.47789047 -10.42460907 37.89474579 -9.80735779 37.29393005 C-3.79971221 31.24294976 1.12060987 24.03938348 1.13671875 15.38085938 C1.13285156 14.65705078 1.12898437 13.93324219 1.125 13.1875 C1.12886719 12.47529297 1.13273438 11.76308594 1.13671875 11.02929688 C1.12968433 7.22719071 0.914708 3.69512993 0 0 Z " fill="#E2382F" transform="translate(371,149)"/>
<path d="M0 0 C11.38886946 6.89622805 20.6087549 17.7877074 29.9453125 27.16015625 C31.38811617 28.60482893 32.8311437 30.04927808 34.27438354 31.49351501 C38.04120944 35.2641281 41.80502048 39.03773626 45.56817627 42.81201172 C49.42121147 46.67534343 53.27713922 50.53578583 57.1328125 54.39648438 C64.67468223 61.9490243 72.21336484 69.50473677 79.75 77.0625 C82.6065422 75.77752893 84.53577477 74.49066778 86.62524414 72.16381836 C87.1591124 71.57830704 87.69298065 70.99279572 88.24302673 70.38954163 C89.09919334 69.43681618 89.09919334 69.43681618 89.97265625 68.46484375 C95.15194345 62.80891794 100.43235342 57.28597573 105.87109375 51.87890625 C106.5529776 51.20032562 107.23486145 50.521745 107.93740845 49.82260132 C110.01876833 47.75470213 112.10267584 45.68940616 114.1875 43.625 C116.98088444 40.85849041 119.77071458 38.0884623 122.55859375 35.31640625 C123.17850693 34.70479141 123.7984201 34.09317657 124.43711853 33.46302795 C128.19036234 29.73062261 131.72508721 25.8663594 135.18519592 21.86106873 C138.37945699 18.18961992 141.8226584 14.7643664 145.25 11.3125 C146.33087891 10.20068359 146.33087891 10.20068359 147.43359375 9.06640625 C154.29655111 2.15380725 160.3331199 -1.93513838 170.25 -2.375 C177.32894163 -2.32294896 182.96749736 0.04784079 188.75 4.0625 C194.04299014 9.78698391 196.30617428 15.15651486 196.1875 22.9375 C196.17775146 23.6485791 196.16800293 24.3596582 196.15795898 25.09228516 C195.60045875 41.55271592 178.34954735 53.60175606 167.43359375 64.4765625 C165.96650086 65.94178646 164.49963145 67.40723422 163.03297424 68.87289429 C159.20317715 72.69890354 155.37038486 76.52189813 151.53692627 80.34423828 C147.61327217 84.25759729 143.69250613 88.17384756 139.77148438 92.08984375 C132.10045436 99.75020242 124.42625186 107.40737426 116.75 115.0625 C120.86287603 119.97192867 125.13831798 124.57389457 129.70166016 129.06420898 C130.70283119 130.0559613 130.70283119 130.0559613 131.72422791 131.06774902 C133.16199329 132.49175045 134.60082918 133.91467168 136.04063797 135.33660698 C138.32245428 137.5915929 140.59970469 139.85109463 142.87557983 142.11207581 C149.3425289 148.53645813 155.8120998 154.95811896 162.29785156 161.36352539 C166.27510717 165.29216475 170.24244993 169.23058197 174.20356369 173.17549324 C175.70934744 174.67140738 177.21877282 176.16366545 178.73195267 177.6520977 C180.84972544 179.7359831 182.95462127 181.83212581 185.05712891 183.93139648 C185.67852249 184.53683792 186.29991608 185.14227936 186.94013977 185.7660675 C192.43036752 191.29483778 196.20777138 197.08207486 196.30566406 205.04956055 C196.28729492 205.71383057 196.26892578 206.37810059 196.25 207.0625 C196.23936523 207.76093018 196.22873047 208.45936035 196.21777344 209.17895508 C196.01444266 214.68883315 194.9877424 218.6402177 191.75 223.0625 C191.193125 223.949375 190.63625 224.83625 190.0625 225.75 C184.78762649 231.02487351 178.45394594 233.67933318 171.125 234.4375 C161.74635506 234.23071316 155.0094071 227.85828065 148.796875 221.5 C147.91515625 220.571875 147.0334375 219.64375 146.125 218.6875 C144.34352068 216.84405618 142.55970487 215.00286715 140.7734375 213.1640625 C139.99919434 212.35275879 139.22495117 211.54145508 138.42724609 210.70556641 C136.33390404 208.6389495 134.22638058 206.71955314 132.00048828 204.80419922 C127.35446156 200.7792551 123.04073609 196.46132619 118.71875 192.09375 C117.46572083 190.83504089 117.46572083 190.83504089 116.18737793 189.55090332 C112.64663871 185.9939548 109.11192676 182.4310388 105.57666016 178.86865234 C102.9802794 176.25409836 100.38083434 173.64261816 97.78125 171.03125 C96.99455933 170.23626099 96.20786865 169.44127197 95.39733887 168.62219238 C91.80643353 165.01556353 88.17978119 161.44969145 84.43554688 158.00195312 C83.82094604 157.43319458 83.20634521 156.86443604 82.57312012 156.27844238 C80.56060928 154.69258847 80.56060928 154.69258847 76.75 155.0625 C75.06368763 156.17156216 75.06368763 156.17156216 73.55818176 157.80021667 C72.9514563 158.40722412 72.34473083 159.01423157 71.71961975 159.63963318 C71.06553635 160.31438187 70.41145294 160.98913055 69.73754883 161.68432617 C69.03941071 162.38830536 68.34127258 163.09228455 67.62197876 163.81759644 C66.10448806 165.35032732 64.59163678 166.88766202 63.08286476 168.42897606 C60.69089264 170.87195148 58.2866895 173.30225727 55.87882996 175.72956848 C49.89655547 181.76537568 43.93595152 187.82244085 37.97485352 193.87915039 C32.94490525 198.98821287 27.9067317 204.08889117 22.8574276 209.17882729 C20.49560494 211.56647331 18.14622139 213.96590501 15.79707336 216.36601257 C14.33512503 217.8425046 12.87260449 219.31843035 11.40942383 220.79370117 C10.76546158 221.4583287 10.12149933 222.12295624 9.45802307 222.807724 C3.02865349 229.24001384 -3.74429223 233.49294402 -12.875 234.4375 C-19.2262806 234.31922662 -24.63288164 231.36105526 -29.3359375 227.23046875 C-35.62591415 220.50258233 -37.89822806 213.98196323 -37.59375 204.796875 C-36.14960574 193.30936384 -26.91786186 185.57162821 -19.12133789 177.8203125 C-18.44731934 177.14614792 -17.77330078 176.47198334 -17.07885742 175.77738953 C-14.87915569 173.57837724 -12.67594735 171.3829154 -10.47265625 169.1875 C-8.93544478 167.65215616 -7.39845584 166.11658949 -5.86167908 164.58081055 C-1.83785654 160.56078606 2.18896121 156.54377515 6.21643066 152.52740479 C10.33426718 148.41984099 14.44923554 144.30940605 18.56445312 140.19921875 C26.62351279 132.15084852 34.68574269 124.10566209 42.75 116.0625 C38.63712397 111.15307133 34.36168202 106.55110543 29.79833984 102.06079102 C29.13089249 101.3996228 28.46344513 100.73845459 27.77577209 100.05725098 C26.33800671 98.63324955 24.89917082 97.21032832 23.45936203 95.78839302 C21.17754572 93.5334071 18.90029531 91.27390537 16.62442017 89.01292419 C10.1574711 82.58854187 3.6879002 76.16688104 -2.79785156 69.76147461 C-6.77510717 65.83283525 -10.74244993 61.89441803 -14.70356369 57.94950676 C-16.20934744 56.45359262 -17.71877282 54.96133455 -19.23195267 53.4729023 C-21.34972544 51.3890169 -23.45462127 49.29287419 -25.55712891 47.19360352 C-26.17852249 46.58816208 -26.79991608 45.98272064 -27.44013977 45.3589325 C-33.39801924 39.35922748 -37.3297414 32.53731768 -37.5625 23.9375 C-37.46635746 15.84016178 -34.44716324 9.4511886 -28.921875 3.5703125 C-21.03662231 -3.54115371 -9.60356765 -4.36250392 0 0 Z " fill="#FEFDFD" transform="translate(177.25,138.9375)"/>
</svg>
